<svg width="308" height="308" fill="none" xmlns="http://www.w3.org/2000/svg"><g filter="url(#a)"><path d="M154 100c62.132 0 112.5-16.79 112.5-37.5S216.132 25 154 25 41.5 41.79 41.5 62.5 91.868 100 154 100ZM266.5 150c0 20.75-50 37.5-112.5 37.5S41.5 170.75 41.5 150" stroke="#174EA6" stroke-width="2" stroke-linecap="round" stroke-linejoin="round"/><path d="M41.5 62.5v175c0 20.75 50 37.5 112.5 37.5s112.5-16.75 112.5-37.5v-175" stroke="#174EA6" stroke-width="2" stroke-linecap="round" stroke-linejoin="round"/><path d="M118.73 117.31c2.52 0 5.81.373 9.87 1.12l-.14 5.25c-3.827-.747-7.07-1.12-9.73-1.12-2.707 0-4.667.537-5.88 1.61-1.167 1.073-1.75 2.707-1.75 4.9v1.82c0 1.167.14 2.1.42 2.8.327.653.887 1.237 1.68 1.75.793.467 1.983.957 3.57 1.47l6.51 2.17c3.127 1.073 5.32 2.497 6.58 4.27 1.307 1.773 1.96 4.363 1.96 7.77v1.33c0 4.153-1.213 7.257-3.64 9.31-2.38 2.053-6.3 3.08-11.76 3.08-2.66 0-6.067-.467-10.22-1.4l.14-5.39c3.873.933 7.187 1.4 9.94 1.4 3.5 0 5.973-.513 7.42-1.54 1.447-1.073 2.17-2.73 2.17-4.97v-2.31c0-1.633-.373-2.87-1.12-3.71-.7-.887-1.96-1.633-3.78-2.24l-7.21-2.38c-3.22-1.073-5.46-2.45-6.72-4.13-1.26-1.727-1.89-4.317-1.89-7.77v-.77c0-4.06 1.073-7.117 3.22-9.17 2.193-2.1 5.647-3.15 10.36-3.15Zm35.354 0c5.226 0 9.076 1.307 11.55 3.92 2.473 2.613 3.71 6.323 3.71 11.13v17.43c0 5.973-2.217 10.15-6.65 12.53l8.05 2.1.14 5.53h-1.33l-13.72-5.18c-.327.047-.887.07-1.68.07-10.22 0-15.33-5.017-15.33-15.05v-17.43c0-4.807 1.236-8.517 3.71-11.13 2.473-2.613 6.323-3.92 11.55-3.92Zm0 5.25c-3.08 0-5.414.77-7 2.31-1.54 1.54-2.31 3.803-2.31 6.79v18.76c0 2.987.793 5.273 2.38 6.86 1.586 1.54 3.92 2.31 7 2.31 6.16 0 9.24-3.103 9.24-9.31v-18.55c0-2.987-.794-5.25-2.38-6.79-1.54-1.587-3.85-2.38-6.93-2.38Zm31.372-4.41v40.6h18.2V164h-24.15v-45.85h5.95Z" fill="#174EA6"/></g><defs><filter id="a" x="0" y="0" width="308" height="308" filterUnits="userSpaceOnUse" color-interpolation-filters="sRGB"><feFlood flood-opacity="0" result="BackgroundImageFix"/><feColorMatrix in="SourceAlpha" values="0 0 0 0 0 0 0 0 0 0 0 0 0 0 0 0 0 0 127 0" result="hardAlpha"/><feOffset dy="4"/><feGaussianBlur stdDeviation="2"/><feComposite in2="hardAlpha" operator="out"/><feColorMatrix values="0 0 0 0 0 0 0 0 0 0 0 0 0 0 0 0 0 0 0.25 0"/><feBlend in2="BackgroundImageFix" result="effect1_dropShadow_15:16"/><feBlend in="SourceGraphic" in2="effect1_dropShadow_15:16" result="shape"/></filter></defs></svg>